<?xml version="1.0" encoding="utf-8"?>
<!-- Generator: Adobe Illustrator 28.0.0, SVG Export Plug-In . SVG Version: 6.00 Build 0)  -->
<svg version="1.1" id="Layer_2_00000078008052989235379460000004531013457520877224_"
	 xmlns="http://www.w3.org/2000/svg" xmlns:xlink="http://www.w3.org/1999/xlink" x="0px" y="0px" viewBox="0 0 244.2 187.5"
	 style="enable-background:new 0 0 244.2 187.5;" xml:space="preserve">
<g>
	<path d="M232.9,57.7L191.5,8.5L190.2,7h-137L52,8.5L11.2,57.4L9.1,60l2,2.7c8.3,11.1,23.4,30.8,31.4,41.8
		c14.2,17.4,29.1,34.2,44,51.1c-12.2-18.9-24.3-37.8-37.1-56.3c-7.9-9.9-20.9-27.7-29.6-39.1l37.4-44.8h129.2l38,45.2
		c-8.8,11.4-22.2,29.3-30.1,39.3c-7.4,10.2-14.2,20.9-21.2,31.3c-5.6,8.4-11.2,16.8-16.6,25.3c15-17,30.2-33.9,44.7-51.5
		c3-4.2,10.4-13.7,13.7-18.1L233,63l2-2.7L232.9,57.7L232.9,57.7z"/>
	<g>
		<polygon points="72.6,25.2 72.6,25.2 37.6,56.1 50.8,56.1 		"/>
		<polygon points="112.5,180.4 112.5,180.4 37.6,64.2 50.8,64.2 		"/>
		<polygon points="172.1,25.4 172.1,25.4 207,56.3 193.8,56.3 		"/>
		<polygon points="132.1,180.5 132.1,180.5 207,64.4 193.8,64.4 		"/>
	</g>
	<g>
		<path d="M128,169.1c13.4-35,30-65.7,43.4-100.6h-14.3l-29.5,74.6l20-74.6H127V25.2l34.6,0c7.8,10.8,16,24.2,23.8,35
			C167.5,98.1,146.1,130.8,128,169.1L128,169.1z M135.1,60.3h39.6l-16.6-26.7h-22.9L135.1,60.3L135.1,60.3z"/>
		<path d="M116.6,168.9c-13.4-35-30-65.7-43.4-100.6h14.3l29.5,74.6L97,68.3h20.7V25.1l-34.6,0c-7.8,10.8-16,24.2-23.8,35
			C77.2,97.9,98.6,130.6,116.6,168.9z M109.5,60.1H69.9l16.6-26.7h22.9L109.5,60.1L109.5,60.1z"/>
	</g>
</g>
</svg>
