<svg xmlns="http://www.w3.org/2000/svg" fill="currentColor" class="w-6 h-6" viewBox="0 0 24 24">
  <path d="M12 0C5.373 0 0 5.373 0 12c0 4.746 2.892 8.791 7.026 10.602-.097-.898-.184-2.275.038-3.253.2-.853 1.292-5.44 1.292-5.44s-.33-.66-.33-1.636c0-1.533.89-2.68 2-2.68.943 0 1.398.707 1.398 1.554 0 .947-.605 2.362-.916 3.679-.26 1.104.552 2.004 1.638 2.004 1.963 0 3.476-2.067 3.476-5.047 0-2.633-1.894-4.479-4.604-4.479-3.137 0-4.981 2.35-4.981 4.772 0 .948.364 1.965.819 2.516a.33.33 0 0 1 .077.31c-.084.342-.27 1.086-.305 1.237-.048.204-.155.248-.36.15C6.296 15.277 5.5 13.574 5.5 11.828c0-3.214 2.389-6.162 6.904-6.162 3.624 0 6.435 2.582 6.435 6.037 0 3.595-2.263 6.485-5.406 6.485-1.056 0-2.047-.549-2.387-1.202 0 0-.575 2.194-.705 2.71-.211.813-.623 1.627-1.003 2.244.909.282 1.867.436 2.864.436 6.627 0 12-5.373 12-12S18.627 0 12 0z" />
</svg>
