<svg xmlns="http://www.w3.org/2000/svg" fill="currentColor" class="w-6 h-6" viewBox="0 0 24 24">
  <path d="M23.954 4.569c-.885.389-1.83.654-2.825.775a4.932 4.932 0 0 0 2.163-2.724 9.864 9.864 0 0 1-3.127 1.195 4.916 4.916 0 0 0-8.384 4.482A13.978 13.978 0 0 1 1.671 3.149a4.908 4.908 0 0 0-.664 2.475c0 1.71.87 3.216 2.188 4.099a4.897 4.897 0 0 1-2.229-.616v.062a4.916 4.916 0 0 0 3.946 4.827 4.996 4.996 0 0 1-2.224.085 4.928 4.928 0 0 0 4.6 3.417 9.875 9.875 0 0 1-6.102 2.105c-.396 0-.788-.023-1.175-.069a13.924 13.924 0 0 0 7.548 2.212c9.057 0 14.01-7.514 14.01-14.015 0-.213-.005-.426-.014-.637a10.025 10.025 0 0 0 2.46-2.548l-.047-.02z" />
</svg>
